<?xml version="1.0" standalone="no"?>
<!DOCTYPE svg PUBLIC "-//W3C//DTD SVG 20010904//EN"
 "http://www.w3.org/TR/2001/REC-SVG-20010904/DTD/svg10.dtd">
<svg version="1.0" xmlns="http://www.w3.org/2000/svg"
 width="401.000000pt" height="401.000000pt" viewBox="0 0 401.000000 401.000000"
 preserveAspectRatio="xMidYMid meet">
<metadata>
Created by potrace 1.11, written by Peter Selinger 2001-2013
</metadata>
<g transform="translate(0.000000,401.000000) scale(0.100000,-0.100000)"
fill="#000000" stroke="none">
<path d="M837 3474 c-1 -1 -22 -4 -47 -7 -322 -39 -607 -264 -723 -572 -27
-71 -40 -124 -52 -205 -10 -62 -9 -1283 0 -1350 18 -131 30 -170 89 -292 96
-197 272 -358 478 -438 142 -55 203 -62 548 -62 287 0 323 1 403 21 232 55
411 203 496 409 15 37 31 83 34 102 4 19 9 46 12 60 8 38 9 139 1 200 -35 270
-212 436 -593 556 -320 100 -371 117 -442 152 -170 83 -239 215 -207 396 10
58 62 155 109 204 93 96 200 134 372 135 136 0 208 -18 299 -77 117 -75 174
-177 191 -343 5 -54 28 -89 67 -102 42 -15 64 -14 98 4 48 25 63 67 56 149
-23 274 -203 487 -476 566 -98 29 -312 36 -413 14 -329 -71 -535 -314 -535
-631 0 -169 43 -279 155 -390 69 -68 168 -129 283 -173 42 -16 24 -10 150 -49
291 -89 341 -107 420 -144 163 -77 240 -187 242 -347 2 -101 -7 -141 -45 -219
-61 -125 -187 -221 -332 -253 -44 -10 -142 -13 -360 -12 -276 1 -306 2 -378
23 -179 49 -325 162 -412 316 -89 158 -91 177 -89 910 0 341 4 638 8 661 38
230 208 435 428 518 37 14 80 28 95 32 15 4 364 8 776 9 l747 2 0 -1085 0
-1084 34 -34 c27 -27 42 -34 72 -34 51 0 86 19 104 56 13 25 15 84 15 357 0
214 3 327 10 327 5 1 179 2 385 4 348 3 381 4 455 25 379 102 642 440 643 826
1 234 -83 439 -248 605 -134 134 -314 228 -495 255 -40 7 -2421 15 -2428 9z
m2422 -237 c198 -50 362 -172 455 -339 128 -230 84 -521 -110 -728 -86 -92
-243 -174 -359 -188 -27 -3 -203 -6 -390 -6 l-340 -1 0 636 0 637 360 -3 c198
-1 371 -5 384 -8z"/>
</g>
</svg>
